<mxfile host="app.diagrams.net" agent="Mozilla/5.0 (Windows NT 10.0; Win64; x64) AppleWebKit/537.36 (KHTML, like Gecko) Chrome/131.0.0.0 Safari/537.36 OPR/116.0.0.0" version="26.0.11" pages="4">
  <diagram name="EJERCICIO 1" id="E8qTxCrl24WaX47h1Tu2">
    <mxGraphModel dx="1078" dy="441" grid="1" gridSize="10" guides="1" tooltips="1" connect="1" arrows="1" fold="1" page="1" pageScale="1" pageWidth="827" pageHeight="1169" math="0" shadow="0">
      <root>
        <mxCell id="0" />
        <mxCell id="1" parent="0" />
        <mxCell id="IdaQO2nsMg845LavYgVP-1" value="INICIO&lt;div&gt;&lt;br&gt;&lt;/div&gt;" style="strokeWidth=2;html=1;shape=mxgraph.flowchart.start_1;whiteSpace=wrap;" parent="1" vertex="1">
          <mxGeometry x="120" y="30" width="100" height="60" as="geometry" />
        </mxCell>
        <mxCell id="IdaQO2nsMg845LavYgVP-2" value="" style="endArrow=classic;html=1;rounded=0;exitX=0.5;exitY=1;exitDx=0;exitDy=0;exitPerimeter=0;entryX=0.5;entryY=0;entryDx=0;entryDy=0;" parent="1" source="IdaQO2nsMg845LavYgVP-1" target="IdaQO2nsMg845LavYgVP-10" edge="1">
          <mxGeometry width="50" height="50" relative="1" as="geometry">
            <mxPoint x="390" y="260" as="sourcePoint" />
            <mxPoint x="170" y="120" as="targetPoint" />
          </mxGeometry>
        </mxCell>
        <mxCell id="IdaQO2nsMg845LavYgVP-7" value="" style="endArrow=classic;html=1;rounded=0;exitX=0.5;exitY=1;exitDx=0;exitDy=0;entryX=0.5;entryY=0;entryDx=0;entryDy=0;" parent="1" source="IdaQO2nsMg845LavYgVP-10" target="IdaQO2nsMg845LavYgVP-8" edge="1">
          <mxGeometry width="50" height="50" relative="1" as="geometry">
            <mxPoint x="169.5" y="190" as="sourcePoint" />
            <mxPoint x="169.5" y="230" as="targetPoint" />
          </mxGeometry>
        </mxCell>
        <mxCell id="IdaQO2nsMg845LavYgVP-8" value="Calcular area =(1/2) * base * altura" style="rounded=1;whiteSpace=wrap;html=1;absoluteArcSize=1;arcSize=14;strokeWidth=2;" parent="1" vertex="1">
          <mxGeometry x="105" y="230" width="130" height="60" as="geometry" />
        </mxCell>
        <mxCell id="IdaQO2nsMg845LavYgVP-9" value="Mostrar area" style="shape=parallelogram;html=1;strokeWidth=2;perimeter=parallelogramPerimeter;whiteSpace=wrap;rounded=1;arcSize=12;size=0.23;" parent="1" vertex="1">
          <mxGeometry x="90" y="320" width="140" height="60" as="geometry" />
        </mxCell>
        <mxCell id="IdaQO2nsMg845LavYgVP-10" value="&quot;ingresar base&quot; y &quot;ingresar altura!" style="shape=parallelogram;html=1;strokeWidth=2;perimeter=parallelogramPerimeter;whiteSpace=wrap;rounded=1;arcSize=12;size=0.23;" parent="1" vertex="1">
          <mxGeometry x="90" y="120" width="160" height="60" as="geometry" />
        </mxCell>
        <mxCell id="IdaQO2nsMg845LavYgVP-12" value="" style="endArrow=classic;html=1;rounded=0;entryX=0.643;entryY=-0.033;entryDx=0;entryDy=0;exitX=0.562;exitY=1.05;exitDx=0;exitDy=0;exitPerimeter=0;entryPerimeter=0;" parent="1" source="IdaQO2nsMg845LavYgVP-8" target="IdaQO2nsMg845LavYgVP-9" edge="1">
          <mxGeometry width="50" height="50" relative="1" as="geometry">
            <mxPoint x="170" y="290" as="sourcePoint" />
            <mxPoint x="169.5" y="330" as="targetPoint" />
          </mxGeometry>
        </mxCell>
        <mxCell id="IdaQO2nsMg845LavYgVP-16" value="" style="endArrow=classic;html=1;rounded=0;entryX=0.5;entryY=0;entryDx=0;entryDy=0;exitX=0.5;exitY=1;exitDx=0;exitDy=0;entryPerimeter=0;" parent="1" source="IdaQO2nsMg845LavYgVP-9" target="IdaQO2nsMg845LavYgVP-17" edge="1">
          <mxGeometry width="50" height="50" relative="1" as="geometry">
            <mxPoint x="160" y="400" as="sourcePoint" />
            <mxPoint x="162" y="425" as="targetPoint" />
          </mxGeometry>
        </mxCell>
        <mxCell id="IdaQO2nsMg845LavYgVP-17" value="fin" style="strokeWidth=2;html=1;shape=mxgraph.flowchart.start_1;whiteSpace=wrap;" parent="1" vertex="1">
          <mxGeometry x="110" y="440" width="100" height="60" as="geometry" />
        </mxCell>
      </root>
    </mxGraphModel>
  </diagram>
  <diagram id="unvtXDgZvLdVAHm-BKA2" name="EJERCICIO 2">
    <mxGraphModel dx="1078" dy="441" grid="1" gridSize="10" guides="1" tooltips="1" connect="1" arrows="1" fold="1" page="1" pageScale="1" pageWidth="827" pageHeight="1169" math="0" shadow="0">
      <root>
        <mxCell id="0" />
        <mxCell id="1" parent="0" />
        <mxCell id="JaoSyzYjn5IvlZ-Eoaz8-1" value="INICIO" style="strokeWidth=2;html=1;shape=mxgraph.flowchart.start_1;whiteSpace=wrap;" vertex="1" parent="1">
          <mxGeometry x="130" y="40" width="100" height="60" as="geometry" />
        </mxCell>
        <mxCell id="JaoSyzYjn5IvlZ-Eoaz8-2" value="FIN" style="strokeWidth=2;html=1;shape=mxgraph.flowchart.start_1;whiteSpace=wrap;" vertex="1" parent="1">
          <mxGeometry x="130" y="470" width="100" height="60" as="geometry" />
        </mxCell>
        <mxCell id="JaoSyzYjn5IvlZ-Eoaz8-3" value="" style="endArrow=classic;html=1;rounded=0;exitX=0.5;exitY=1;exitDx=0;exitDy=0;exitPerimeter=0;entryX=0.5;entryY=0;entryDx=0;entryDy=0;" edge="1" parent="1" source="JaoSyzYjn5IvlZ-Eoaz8-1" target="JaoSyzYjn5IvlZ-Eoaz8-4">
          <mxGeometry width="50" height="50" relative="1" as="geometry">
            <mxPoint x="390" y="260" as="sourcePoint" />
            <mxPoint x="180" y="150" as="targetPoint" />
          </mxGeometry>
        </mxCell>
        <mxCell id="JaoSyzYjn5IvlZ-Eoaz8-4" value="&quot;INGRESAR METROS&quot;" style="shape=parallelogram;perimeter=parallelogramPerimeter;whiteSpace=wrap;html=1;fixedSize=1;" vertex="1" parent="1">
          <mxGeometry x="99" y="160" width="190" height="60" as="geometry" />
        </mxCell>
        <mxCell id="JaoSyzYjn5IvlZ-Eoaz8-5" value="PULGADAS= (METROS * 100) / 2.54" style="rounded=1;whiteSpace=wrap;html=1;absoluteArcSize=1;arcSize=14;strokeWidth=2;" vertex="1" parent="1">
          <mxGeometry x="70" y="260" width="240" height="100" as="geometry" />
        </mxCell>
        <mxCell id="JaoSyzYjn5IvlZ-Eoaz8-6" value="" style="endArrow=classic;html=1;rounded=0;exitX=0.468;exitY=1;exitDx=0;exitDy=0;exitPerimeter=0;" edge="1" parent="1" source="JaoSyzYjn5IvlZ-Eoaz8-4" target="JaoSyzYjn5IvlZ-Eoaz8-5">
          <mxGeometry width="50" height="50" relative="1" as="geometry">
            <mxPoint x="390" y="260" as="sourcePoint" />
            <mxPoint x="440" y="210" as="targetPoint" />
          </mxGeometry>
        </mxCell>
        <mxCell id="JaoSyzYjn5IvlZ-Eoaz8-7" value="MOSTRAR PULGADAS" style="shape=parallelogram;perimeter=parallelogramPerimeter;whiteSpace=wrap;html=1;fixedSize=1;" vertex="1" parent="1">
          <mxGeometry x="85" y="390" width="190" height="60" as="geometry" />
        </mxCell>
        <mxCell id="JaoSyzYjn5IvlZ-Eoaz8-8" value="" style="endArrow=classic;html=1;rounded=0;exitX=0.5;exitY=1;exitDx=0;exitDy=0;entryX=0.547;entryY=0;entryDx=0;entryDy=0;entryPerimeter=0;" edge="1" parent="1" source="JaoSyzYjn5IvlZ-Eoaz8-5" target="JaoSyzYjn5IvlZ-Eoaz8-7">
          <mxGeometry width="50" height="50" relative="1" as="geometry">
            <mxPoint x="390" y="290" as="sourcePoint" />
            <mxPoint x="440" y="240" as="targetPoint" />
          </mxGeometry>
        </mxCell>
        <mxCell id="JaoSyzYjn5IvlZ-Eoaz8-9" value="" style="endArrow=classic;html=1;rounded=0;exitX=0.5;exitY=1;exitDx=0;exitDy=0;entryX=0.5;entryY=0;entryDx=0;entryDy=0;entryPerimeter=0;" edge="1" parent="1" source="JaoSyzYjn5IvlZ-Eoaz8-7" target="JaoSyzYjn5IvlZ-Eoaz8-2">
          <mxGeometry width="50" height="50" relative="1" as="geometry">
            <mxPoint x="390" y="300" as="sourcePoint" />
            <mxPoint x="440" y="250" as="targetPoint" />
          </mxGeometry>
        </mxCell>
      </root>
    </mxGraphModel>
  </diagram>
  <diagram id="UiP_pSPZARDq4mE7gcj9" name="EJERCICIO 3">
    <mxGraphModel dx="1268" dy="519" grid="1" gridSize="10" guides="1" tooltips="1" connect="1" arrows="1" fold="1" page="1" pageScale="1" pageWidth="827" pageHeight="1169" math="0" shadow="0">
      <root>
        <mxCell id="0" />
        <mxCell id="1" parent="0" />
        <mxCell id="IKcgygMVM0ITbM8P0DHJ-1" value="inicio&lt;div&gt;&lt;br&gt;&lt;/div&gt;" style="strokeWidth=2;html=1;shape=mxgraph.flowchart.start_1;whiteSpace=wrap;" vertex="1" parent="1">
          <mxGeometry x="240" y="60" width="100" height="60" as="geometry" />
        </mxCell>
        <mxCell id="IKcgygMVM0ITbM8P0DHJ-2" value="&lt;div&gt;&quot;INGRESA B&quot;&lt;/div&gt;&lt;div&gt;&lt;br&gt;&lt;/div&gt;" style="shape=parallelogram;perimeter=parallelogramPerimeter;whiteSpace=wrap;html=1;fixedSize=1;" vertex="1" parent="1">
          <mxGeometry x="150" y="240" width="260" height="120" as="geometry" />
        </mxCell>
        <mxCell id="IKcgygMVM0ITbM8P0DHJ-3" value="" style="endArrow=classic;html=1;rounded=0;exitX=0.5;exitY=1;exitDx=0;exitDy=0;exitPerimeter=0;entryX=0.55;entryY=0.033;entryDx=0;entryDy=0;entryPerimeter=0;" edge="1" parent="1" source="IKcgygMVM0ITbM8P0DHJ-1" target="IKcgygMVM0ITbM8P0DHJ-4">
          <mxGeometry width="50" height="50" relative="1" as="geometry">
            <mxPoint x="390" y="260" as="sourcePoint" />
            <mxPoint x="440" y="210" as="targetPoint" />
          </mxGeometry>
        </mxCell>
        <mxCell id="IKcgygMVM0ITbM8P0DHJ-4" value="&#xa;&lt;span style=&quot;color: rgb(0, 0, 0); font-family: Helvetica; font-size: 12px; font-style: normal; font-variant-ligatures: normal; font-variant-caps: normal; font-weight: 400; letter-spacing: normal; orphans: 2; text-align: center; text-indent: 0px; text-transform: none; widows: 2; word-spacing: 0px; -webkit-text-stroke-width: 0px; white-space: normal; background-color: rgb(251, 251, 251); text-decoration-thickness: initial; text-decoration-style: initial; text-decoration-color: initial; display: inline !important; float: none;&quot;&gt;&quot;INGRESAR A &quot;&lt;/span&gt;&lt;br class=&quot;Apple-interchange-newline&quot;&gt;&#xa;&#xa;" style="shape=parallelogram;perimeter=parallelogramPerimeter;whiteSpace=wrap;html=1;fixedSize=1;" vertex="1" parent="1">
          <mxGeometry x="154" y="150" width="260" height="60" as="geometry" />
        </mxCell>
        <mxCell id="IKcgygMVM0ITbM8P0DHJ-6" value="" style="endArrow=classic;html=1;rounded=0;exitX=0.446;exitY=0.991;exitDx=0;exitDy=0;exitPerimeter=0;entryX=0.5;entryY=0;entryDx=0;entryDy=0;" edge="1" parent="1" source="IKcgygMVM0ITbM8P0DHJ-2" target="IKcgygMVM0ITbM8P0DHJ-8">
          <mxGeometry width="50" height="50" relative="1" as="geometry">
            <mxPoint x="390" y="260" as="sourcePoint" />
            <mxPoint x="250" y="400" as="targetPoint" />
          </mxGeometry>
        </mxCell>
        <mxCell id="IKcgygMVM0ITbM8P0DHJ-7" value="" style="endArrow=classic;html=1;rounded=0;exitX=0.435;exitY=0.983;exitDx=0;exitDy=0;exitPerimeter=0;entryX=0.5;entryY=0;entryDx=0;entryDy=0;" edge="1" parent="1" source="IKcgygMVM0ITbM8P0DHJ-4" target="IKcgygMVM0ITbM8P0DHJ-2">
          <mxGeometry width="50" height="50" relative="1" as="geometry">
            <mxPoint x="390" y="260" as="sourcePoint" />
            <mxPoint x="440" y="210" as="targetPoint" />
          </mxGeometry>
        </mxCell>
        <mxCell id="IKcgygMVM0ITbM8P0DHJ-8" value="&quot;INGRESA C &quot;" style="shape=parallelogram;perimeter=parallelogramPerimeter;whiteSpace=wrap;html=1;fixedSize=1;" vertex="1" parent="1">
          <mxGeometry x="200" y="410" width="160" height="60" as="geometry" />
        </mxCell>
        <mxCell id="IKcgygMVM0ITbM8P0DHJ-9" value="&quot;D = b2 - 4ac&quot;" style="rounded=0;whiteSpace=wrap;html=1;" vertex="1" parent="1">
          <mxGeometry x="210" y="524.5" width="120" height="60" as="geometry" />
        </mxCell>
        <mxCell id="IKcgygMVM0ITbM8P0DHJ-10" value="" style="endArrow=classic;html=1;rounded=0;exitX=0.45;exitY=1.026;exitDx=0;exitDy=0;exitPerimeter=0;entryX=0.5;entryY=0;entryDx=0;entryDy=0;" edge="1" parent="1" source="IKcgygMVM0ITbM8P0DHJ-8" target="IKcgygMVM0ITbM8P0DHJ-9">
          <mxGeometry width="50" height="50" relative="1" as="geometry">
            <mxPoint x="270" y="480" as="sourcePoint" />
            <mxPoint x="450" y="330" as="targetPoint" />
          </mxGeometry>
        </mxCell>
        <mxCell id="IKcgygMVM0ITbM8P0DHJ-11" value="fin&lt;div&gt;&lt;br&gt;&lt;/div&gt;&lt;div&gt;&lt;br&gt;&lt;/div&gt;" style="ellipse;whiteSpace=wrap;html=1;" vertex="1" parent="1">
          <mxGeometry x="210" y="640" width="120" height="80" as="geometry" />
        </mxCell>
        <mxCell id="IKcgygMVM0ITbM8P0DHJ-12" value="" style="endArrow=classic;html=1;rounded=0;exitX=0.5;exitY=1;exitDx=0;exitDy=0;entryX=0.5;entryY=0;entryDx=0;entryDy=0;" edge="1" parent="1" source="IKcgygMVM0ITbM8P0DHJ-9" target="IKcgygMVM0ITbM8P0DHJ-11">
          <mxGeometry width="50" height="50" relative="1" as="geometry">
            <mxPoint x="400" y="560" as="sourcePoint" />
            <mxPoint x="450" y="510" as="targetPoint" />
          </mxGeometry>
        </mxCell>
      </root>
    </mxGraphModel>
  </diagram>
  <diagram id="Bmb87HMydpHjwxSTy-qe" name="Página-4">
    <mxGraphModel dx="1078" dy="441" grid="1" gridSize="10" guides="1" tooltips="1" connect="1" arrows="1" fold="1" page="1" pageScale="1" pageWidth="827" pageHeight="1169" math="0" shadow="0">
      <root>
        <mxCell id="0" />
        <mxCell id="1" parent="0" />
      </root>
    </mxGraphModel>
  </diagram>
</mxfile>
